<?xml version="1.0" encoding="UTF-8"?>
<svg version="1.1" xmlns="http://www.w3.org/2000/svg" width="180" height="180">
<path d="M0 0 C59.4 0 118.8 0 180 0 C180 59.4 180 118.8 180 180 C120.6 180 61.2 180 0 180 C0 120.6 0 61.2 0 0 Z " fill="#F57EA2" transform="translate(0,0)"/>
<path d="M0 0 C59.4 0 118.8 0 180 0 C180 59.4 180 118.8 180 180 C120.6 180 61.2 180 0 180 C0 120.6 0 61.2 0 0 Z M25 25 C25 67.9 25 110.8 25 155 C67.9 155 110.8 155 155 155 C155 112.1 155 69.2 155 25 C112.1 25 69.2 25 25 25 Z " fill="#FFFFFF" transform="translate(0,0)"/>
<path d="M0 0 C5.28 0 10.56 0 16 0 C16.09914151 7.54390665 16.17159946 15.08743101 16.21972656 22.63183594 C16.23979728 25.1963563 16.26706001 27.76083115 16.30175781 30.32519531 C16.35047355 34.01899471 16.37301513 37.71218709 16.390625 41.40625 C16.41127014 42.5461438 16.43191528 43.6860376 16.45318604 44.86047363 C16.45510818 51.7348495 15.69188848 56.15351791 12 62 C6.6291417 67.3708583 1.16894091 69.18258378 -6.25 69.4375 C-14.27038341 69.22522288 -21.69999217 67.54729121 -27.6875 61.9375 C-30 59 -30 59 -30 56 C-28.23628182 54.96692229 -26.46374967 53.94887951 -24.6875 52.9375 C-23.70136719 52.36902344 -22.71523437 51.80054688 -21.69921875 51.21484375 C-19 50 -19 50 -16 51 C-15.484375 51.680625 -14.96875 52.36125 -14.4375 53.0625 C-10.64323211 56.07845653 -6.67422193 55.32112975 -2 55 C-1.10113192 51.90206257 -0.85048451 49.08510617 -0.79467773 45.86425781 C-0.77473251 44.84350159 -0.75478729 43.82274536 -0.73423767 42.77105713 C-0.70916893 41.12868073 -0.70916893 41.12868073 -0.68359375 39.453125 C-0.66281265 38.3267865 -0.64203156 37.200448 -0.62062073 36.03997803 C-0.55525667 32.44338051 -0.49630115 28.84671023 -0.4375 25.25 C-0.3943023 22.8111904 -0.3506876 20.37238816 -0.30664062 17.93359375 C-0.19958866 11.95580366 -0.09828396 5.97794042 0 0 Z " fill="#FDFBFC" transform="translate(91,56)"/>
</svg>
