<?xml version="1.0" encoding="UTF-8"?>
<svg version="1.1" xmlns="http://www.w3.org/2000/svg" width="192" height="192">
<path d="M0 0 C18.90689962 15.58757033 33.11907613 37.23841444 36 62 C38.07547047 91.3505373 32.56815164 115.90370704 13.70703125 138.78125 C-2.30160634 157.07683582 -24.58260867 170.48550768 -49.21777344 172.22753906 C-78.86421276 173.54534277 -102.83351613 167.16129839 -125.375 147.4375 C-143.3726075 130.57017703 -155.27669608 108.17320354 -156.3828125 83.2890625 C-157.11886896 53.81089907 -149.54623447 29.94720637 -129.1640625 8.19921875 C-94.60358381 -26.92271176 -38.61104408 -30.2283832 0 0 Z " fill="#F57EA1" transform="translate(156,20)"/>
<path d="M0 0 C44.22 0 88.44 0 134 0 C121.82105299 15.22368376 100.03374779 24.25229977 81 27 C50.56205546 28.80688691 26.27938196 23.17562955 2.6875 3.5 C1.800625 2.675 0.91375 1.85 0 1 C0 0.67 0 0.34 0 0 Z " fill="#FFFFFF" transform="translate(29,165)"/>
<path d="M0 0 C15.22368376 12.17894701 24.25229977 33.96625221 27 53 C28.80688691 83.43794454 23.17562955 107.72061804 3.5 131.3125 C2.675 132.199375 1.85 133.08625 1 134 C0.67 134 0.34 134 0 134 C0 89.78 0 45.56 0 0 Z " fill="#FFFFFF" transform="translate(165,29)"/>
<path d="M0 0 C0.33 0 0.66 0 1 0 C1 44.22 1 88.44 1 134 C-14.22368376 121.82105299 -23.25229977 100.03374779 -26 81 C-27.80688691 50.56205546 -22.17562955 26.27938196 -2.5 2.6875 C-1.675 1.800625 -0.85 0.91375 0 0 Z " fill="#FFFFFF" transform="translate(26,29)"/>
<path d="M0 0 C3.39250019 2.61070895 6.66192307 5.2361094 9.796875 8.15234375 C9.796875 8.48234375 9.796875 8.81234375 9.796875 9.15234375 C-34.423125 9.15234375 -78.643125 9.15234375 -124.203125 9.15234375 C-95.1806974 -27.12569075 -34.92971304 -25.41527628 0 0 Z " fill="#FFFFFF" transform="translate(153.203125,17.84765625)"/>
<path d="M0 0 C5.94 0 11.88 0 18 0 C18.09929718 7.64970161 18.17167257 15.29902328 18.21972656 22.94921875 C18.2397713 25.54856914 18.26701447 28.14787483 18.30175781 30.74707031 C18.35058865 34.4955553 18.37304126 38.24344111 18.390625 41.9921875 C18.41127014 43.14363251 18.43191528 44.29507751 18.45318604 45.48141479 C18.4553203 53.25474607 17.69157383 60.89886949 12.27886963 66.91207886 C6.38345631 72.3496224 0.60987434 74.5475819 -7.3125 74.4375 C-8.0643457 74.43065186 -8.81619141 74.42380371 -9.59082031 74.41674805 C-17.11163073 74.19951997 -22.18666959 72.39432376 -27.9375 67.5 C-29.72094994 65.3382425 -30.81769953 63.50244764 -32 61 C-30.42065361 60.01441551 -28.83634827 59.03677459 -27.25 58.0625 C-26.36828125 57.51722656 -25.4865625 56.97195312 -24.578125 56.41015625 C-22.31600083 55.17284288 -20.51433675 54.46409487 -18 54 C-17.38125 54.804375 -16.7625 55.60875 -16.125 56.4375 C-14.25835959 59.03874519 -14.25835959 59.03874519 -12 60 C-7.27050934 60.49488192 -7.27050934 60.49488192 -3.125 58.625 C-0.9782314 55.52411203 -0.8545171 53.4683558 -0.79467773 49.72412109 C-0.77473251 48.6231308 -0.75478729 47.5221405 -0.73423767 46.38778687 C-0.71752518 45.19505157 -0.70081268 44.00231628 -0.68359375 42.7734375 C-0.66281265 41.55548492 -0.64203156 40.33753235 -0.62062073 39.08267212 C-0.55507416 35.1801738 -0.49621645 31.2776065 -0.4375 27.375 C-0.39431965 24.73436778 -0.35070552 22.09374261 -0.30664062 19.453125 C-0.19938752 12.96882125 -0.09813447 6.48444791 0 0 Z " fill="#FDFAFB" transform="translate(97,59)"/>
</svg>
