<?xml version="1.0" encoding="UTF-8"?>
<svg version="1.1" xmlns="http://www.w3.org/2000/svg" width="192" height="192">
<path d="M0 0 C63.36 0 126.72 0 192 0 C192 63.36 192 126.72 192 192 C128.64 192 65.28 192 0 192 C0 128.64 0 65.28 0 0 Z " fill="#F57EA1" transform="translate(0,0)"/>
<path d="M0 0 C63.36 0 126.72 0 192 0 C192 63.36 192 126.72 192 192 C128.64 192 65.28 192 0 192 C0 128.64 0 65.28 0 0 Z M27 27 C27 72.54 27 118.08 27 165 C72.54 165 118.08 165 165 165 C165 119.46 165 73.92 165 27 C119.46 27 73.92 27 27 27 Z " fill="#FFFFFF" transform="translate(0,0)"/>
<path d="M0 0 C5.94 0 11.88 0 18 0 C18.09929718 7.64970161 18.17167257 15.29902328 18.21972656 22.94921875 C18.2397713 25.54856914 18.26701447 28.14787483 18.30175781 30.74707031 C18.35058865 34.4955553 18.37304126 38.24344111 18.390625 41.9921875 C18.41127014 43.14363251 18.43191528 44.29507751 18.45318604 45.48141479 C18.4553203 53.25474607 17.69157383 60.89886949 12.27886963 66.91207886 C6.38345631 72.3496224 0.60987434 74.5475819 -7.3125 74.4375 C-8.0643457 74.43065186 -8.81619141 74.42380371 -9.59082031 74.41674805 C-17.11163073 74.19951997 -22.18666959 72.39432376 -27.9375 67.5 C-29.72094994 65.3382425 -30.81769953 63.50244764 -32 61 C-30.42065361 60.01441551 -28.83634827 59.03677459 -27.25 58.0625 C-26.36828125 57.51722656 -25.4865625 56.97195312 -24.578125 56.41015625 C-22.31600083 55.17284288 -20.51433675 54.46409487 -18 54 C-17.38125 54.804375 -16.7625 55.60875 -16.125 56.4375 C-14.25835959 59.03874519 -14.25835959 59.03874519 -12 60 C-7.27050934 60.49488192 -7.27050934 60.49488192 -3.125 58.625 C-0.9782314 55.52411203 -0.8545171 53.4683558 -0.79467773 49.72412109 C-0.77473251 48.6231308 -0.75478729 47.5221405 -0.73423767 46.38778687 C-0.71752518 45.19505157 -0.70081268 44.00231628 -0.68359375 42.7734375 C-0.66281265 41.55548492 -0.64203156 40.33753235 -0.62062073 39.08267212 C-0.55507416 35.1801738 -0.49621645 31.2776065 -0.4375 27.375 C-0.39431965 24.73436778 -0.35070552 22.09374261 -0.30664062 19.453125 C-0.19938752 12.96882125 -0.09813447 6.48444791 0 0 Z " fill="#FDFAFB" transform="translate(97,59)"/>
</svg>
