<?xml version="1.0" encoding="UTF-8"?>
<svg version="1.1" xmlns="http://www.w3.org/2000/svg" width="512" height="512">
<path d="M0 0 C0.9355925 -0.00974854 1.871185 -0.01949707 2.83512878 -0.02954102 C23.24416486 -0.1984297 42.96079539 -0.03089418 63.0078125 4.23828125 C63.93158691 4.42551758 64.85536133 4.61275391 65.80712891 4.80566406 C101.4803425 12.13655694 136.04867954 27.05718327 165.0078125 49.23828125 C165.5857959 49.67495117 166.1637793 50.11162109 166.75927734 50.56152344 C175.26586251 57.002323 183.31244993 63.84319145 191.0078125 71.23828125 C191.60239258 71.80562988 192.19697266 72.37297852 192.80957031 72.95751953 C201.15799553 80.96365501 208.80764092 89.18319073 215.69726562 98.47900391 C217.02578341 100.26240538 218.38141287 102.02237641 219.7421875 103.78125 C227.10148221 113.40694237 233.21551204 123.60687263 239.0078125 134.23828125 C239.3697168 134.89876465 239.73162109 135.55924805 240.10449219 136.23974609 C257.60985188 168.57859478 268.92626162 206.31643928 269.24609375 243.23046875 C269.25584229 244.16606125 269.26559082 245.10165375 269.27563477 246.06559753 C269.44452345 266.47463361 269.27698793 286.19126414 265.0078125 306.23828125 C264.82057617 307.16205566 264.63333984 308.08583008 264.44042969 309.03759766 C257.10953681 344.71081125 242.18891048 379.27914829 220.0078125 408.23828125 C219.57114258 408.81626465 219.13447266 409.39424805 218.68457031 409.98974609 C212.24377075 418.49633126 205.4029023 426.54291868 198.0078125 434.23828125 C197.44046387 434.83286133 196.87311523 435.42744141 196.28857422 436.04003906 C188.28243874 444.38846428 180.06290302 452.03810967 170.76708984 458.92773438 C168.98368837 460.25625216 167.22371734 461.61188162 165.46484375 462.97265625 C155.83915138 470.33195096 145.63922112 476.44598079 135.0078125 482.23828125 C134.3473291 482.60018555 133.6868457 482.96208984 133.00634766 483.33496094 C100.66749897 500.84032063 62.92965447 512.15673037 26.015625 512.4765625 C25.0800325 512.48631104 24.14444 512.49605957 23.18049622 512.50610352 C2.77146014 512.6749922 -16.94517039 512.50745668 -36.9921875 508.23828125 C-37.91596191 508.05104492 -38.83973633 507.86380859 -39.79150391 507.67089844 C-75.4647175 500.34000556 -110.03305454 485.41937923 -138.9921875 463.23828125 C-139.5701709 462.80161133 -140.1481543 462.36494141 -140.74365234 461.91503906 C-149.25023751 455.4742395 -157.29682493 448.63337105 -164.9921875 441.23828125 C-165.58676758 440.67093262 -166.18134766 440.10358398 -166.79394531 439.51904297 C-175.14237053 431.51290749 -182.79201592 423.29337177 -189.68164062 413.99755859 C-191.01015841 412.21415712 -192.36578787 410.45418609 -193.7265625 408.6953125 C-201.08585721 399.06962013 -207.19988704 388.86968987 -212.9921875 378.23828125 C-213.3540918 377.57779785 -213.71599609 376.91731445 -214.08886719 376.23681641 C-231.59422688 343.89796772 -242.91063662 306.16012322 -243.23046875 269.24609375 C-243.24021729 268.31050125 -243.24996582 267.37490875 -243.26000977 266.41096497 C-243.42889845 246.00192889 -243.26136293 226.28529836 -238.9921875 206.23828125 C-238.80495117 205.31450684 -238.61771484 204.39073242 -238.42480469 203.43896484 C-231.09391181 167.76575125 -216.17328548 133.19741421 -193.9921875 104.23828125 C-193.55551758 103.66029785 -193.11884766 103.08231445 -192.66894531 102.48681641 C-186.22814575 93.98023124 -179.3872773 85.93364382 -171.9921875 78.23828125 C-171.42483887 77.64370117 -170.85749023 77.04912109 -170.27294922 76.43652344 C-162.26681374 68.08809822 -154.04727802 60.43845283 -144.75146484 53.54882812 C-142.96806337 52.22031034 -141.20809234 50.86468088 -139.44921875 49.50390625 C-129.82352638 42.14461154 -119.62359612 36.03058171 -108.9921875 30.23828125 C-108.3317041 29.87637695 -107.6712207 29.51447266 -106.99072266 29.14160156 C-74.65187397 11.63624187 -36.91402947 0.31983213 0 0 Z " fill="#F57EA1" transform="translate(242.9921875,-0.23828125)"/>
<path d="M0 0 C117.48 0 234.96 0 356 0 C340.73188722 17.81279824 320.49319253 30.889016 300 42 C299.34386719 42.35900391 298.68773437 42.71800781 298.01171875 43.08789062 C265.66904129 60.59847066 227.92807896 71.91839508 191.0078125 72.23828125 C190.07222 72.24802979 189.1366275 72.25777832 188.17268372 72.26782227 C167.76364764 72.43671095 148.04701711 72.26917543 128 68 C127.07622559 67.81276367 126.15245117 67.62552734 125.20068359 67.43261719 C89.52747 60.10172431 54.95913296 45.18109798 26 23 C25.4220166 22.56333008 24.8440332 22.12666016 24.24853516 21.67675781 C15.76234805 15.25140273 7.56088567 8.50549457 0 1 C0 0.67 0 0.34 0 0 Z " fill="#FEFEFE" transform="translate(78,440)"/>
<path d="M0 0 C17.81279824 15.26811278 30.889016 35.50680747 42 56 C42.35900391 56.65613281 42.71800781 57.31226563 43.08789062 57.98828125 C60.59847066 90.33095871 71.91839508 128.07192104 72.23828125 164.9921875 C72.25290405 166.39557625 72.25290405 166.39557625 72.26782227 167.82731628 C72.43671095 188.23635236 72.26917543 207.95298289 68 228 C67.81276367 228.92377441 67.62552734 229.84754883 67.43261719 230.79931641 C60.10172431 266.47253 45.18109798 301.04086704 23 330 C22.56333008 330.5779834 22.12666016 331.1559668 21.67675781 331.75146484 C15.25140273 340.23765195 8.50549457 348.43911433 1 356 C0.67 356 0.34 356 0 356 C0 238.52 0 121.04 0 0 Z " fill="#FEFEFE" transform="translate(440,78)"/>
<path d="M0 0 C0.33 0 0.66 0 1 0 C1 117.48 1 234.96 1 356 C-16.81279824 340.73188722 -29.889016 320.49319253 -41 300 C-41.35900391 299.34386719 -41.71800781 298.68773437 -42.08789062 298.01171875 C-59.59847066 265.66904129 -70.91839508 227.92807896 -71.23828125 191.0078125 C-71.24802979 190.07222 -71.25777832 189.1366275 -71.26782227 188.17268372 C-71.43671095 167.76364764 -71.26917543 148.04701711 -67 128 C-66.81276367 127.07622559 -66.62552734 126.15245117 -66.43261719 125.20068359 C-59.10172431 89.52747 -44.18109798 54.95913296 -22 26 C-21.34499512 25.1330249 -21.34499512 25.1330249 -20.67675781 24.24853516 C-14.25140273 15.76234805 -7.50549457 7.56088567 0 0 Z " fill="#FEFEFE" transform="translate(71,78)"/>
<path d="M0 0 C0.9355925 -0.00974854 1.871185 -0.01949707 2.83512878 -0.02954102 C23.24416486 -0.1984297 42.96079539 -0.03089418 63.0078125 4.23828125 C63.93158691 4.42551758 64.85536133 4.61275391 65.80712891 4.80566406 C101.4803425 12.13655694 136.04867954 27.05718327 165.0078125 49.23828125 C165.5857959 49.67495117 166.1637793 50.11162109 166.75927734 50.56152344 C175.24546445 56.98687852 183.44692683 63.73278668 191.0078125 71.23828125 C191.0078125 71.56828125 191.0078125 71.89828125 191.0078125 72.23828125 C73.5278125 72.23828125 -43.9521875 72.23828125 -164.9921875 72.23828125 C-149.72407472 54.42548301 -129.48538003 41.34926525 -108.9921875 30.23828125 C-108.33605469 29.87927734 -107.67992187 29.52027344 -107.00390625 29.15039062 C-74.66122879 11.63981059 -36.92026646 0.31988617 0 0 Z " fill="#FEFEFE" transform="translate(242.9921875,-0.23828125)"/>
<path d="M0 0 C16.17 0 32.34 0 49 0 C49.09054014 18.7769804 49.16412093 37.55378213 49.20724869 56.33092594 C49.22781218 65.0508567 49.25581284 73.77064149 49.30175781 82.49047852 C49.34181704 90.09694046 49.36747788 97.70329661 49.37635398 105.30986112 C49.38153668 109.33185559 49.39358564 113.35354758 49.42292023 117.37544441 C49.45039235 121.17333179 49.45838208 124.97079671 49.45243073 128.76877403 C49.45402867 130.8020204 49.4753829 132.83522244 49.49768066 134.86834717 C49.42574399 151.20963184 44.71029425 167.97881492 33.17578125 180.1015625 C14.25331135 196.612012 -7.74636281 199.0540286 -32 198 C-48.01151747 196.5385951 -64.63846484 189.6720313 -75.29296875 177.34765625 C-83.981616 166.83563628 -83.981616 166.83563628 -84.04296875 164.046875 C-82.4011086 160.82464759 -79.4392928 159.76858445 -76.3125 158.25 C-74.94561857 157.55534182 -73.5797567 156.85867431 -72.21484375 156.16015625 C-71.51601074 155.8058252 -70.81717773 155.45149414 -70.09716797 155.08642578 C-66.80278716 153.37979079 -63.58815686 151.54142777 -60.375 149.6875 C-59.26898438 149.05199219 -58.16296875 148.41648437 -57.0234375 147.76171875 C-55.08031985 146.6294887 -53.16484036 145.44763937 -51.2890625 144.20703125 C-50.53367188 143.80871094 -49.77828125 143.41039062 -49 143 C-48.01 143.33 -47.02 143.66 -46 144 C-45.18359375 145.8203125 -45.18359375 145.8203125 -44.4375 148.125 C-41.97280497 154.13808866 -37.47259035 156.83396616 -32 160 C-31.06994141 160.58201172 -31.06994141 160.58201172 -30.12109375 161.17578125 C-27.06706968 162.36251989 -24.32639031 162.26393336 -21.0625 162.25 C-19.85722656 162.25515625 -18.65195313 162.2603125 -17.41015625 162.265625 C-13.23592094 161.94048411 -10.38673869 161.27091627 -7.26953125 158.4140625 C-6.54830078 157.52847656 -6.54830078 157.52847656 -5.8125 156.625 C-5.32394531 156.03976562 -4.83539063 155.45453125 -4.33203125 154.8515625 C-1.41152559 150.79197399 -0.74693357 147.89284688 -0.7215271 142.86236572 C-0.71036362 141.60315811 -0.69920013 140.3439505 -0.68769836 139.04658508 C-0.68533348 137.65377837 -0.68315782 136.26097133 -0.68115234 134.86816406 C-0.67185291 133.39960681 -0.66168421 131.93105485 -0.65071106 130.46250916 C-0.62339864 126.47734714 -0.60825799 122.4922205 -0.59528303 118.50698948 C-0.57965792 114.34159345 -0.55286573 110.17626972 -0.5272522 106.01092529 C-0.48045343 98.12394976 -0.44371464 90.23696065 -0.41057932 82.34991717 C-0.3723657 73.37050684 -0.32295355 64.39116909 -0.27259517 55.41181993 C-0.16925894 36.9412602 -0.0814824 18.47066997 0 0 Z " fill="#FDFBFB" transform="translate(257,157)"/>
</svg>
