<?xml version="1.0" encoding="UTF-8"?>
<svg version="1.1" xmlns="http://www.w3.org/2000/svg" width="512" height="512">
<path d="M0 0 C168.96 0 337.92 0 512 0 C512 168.96 512 337.92 512 512 C343.04 512 174.08 512 0 512 C0 343.04 0 174.08 0 0 Z " fill="#F57EA1" transform="translate(0,0)"/>
<path d="M0 0 C168.96 0 337.92 0 512 0 C512 168.96 512 337.92 512 512 C343.04 512 174.08 512 0 512 C0 343.04 0 174.08 0 0 Z M72 72 C72 193.44 72 314.88 72 440 C193.44 440 314.88 440 440 440 C440 318.56 440 197.12 440 72 C318.56 72 197.12 72 72 72 Z " fill="#FEFEFE" transform="translate(0,0)"/>
<path d="M0 0 C16.17 0 32.34 0 49 0 C49.09054014 18.7769804 49.16412093 37.55378213 49.20724869 56.33092594 C49.22781218 65.0508567 49.25581284 73.77064149 49.30175781 82.49047852 C49.34181704 90.09694046 49.36747788 97.70329661 49.37635398 105.30986112 C49.38153668 109.33185559 49.39358564 113.35354758 49.42292023 117.37544441 C49.45039235 121.17333179 49.45838208 124.97079671 49.45243073 128.76877403 C49.45402867 130.8020204 49.4753829 132.83522244 49.49768066 134.86834717 C49.42574399 151.20963184 44.71029425 167.97881492 33.17578125 180.1015625 C14.25331135 196.612012 -7.74636281 199.0540286 -32 198 C-48.01151747 196.5385951 -64.63846484 189.6720313 -75.29296875 177.34765625 C-83.981616 166.83563628 -83.981616 166.83563628 -84.04296875 164.046875 C-82.4011086 160.82464759 -79.4392928 159.76858445 -76.3125 158.25 C-74.94561857 157.55534182 -73.5797567 156.85867431 -72.21484375 156.16015625 C-71.51601074 155.8058252 -70.81717773 155.45149414 -70.09716797 155.08642578 C-66.80278716 153.37979079 -63.58815686 151.54142777 -60.375 149.6875 C-59.26898438 149.05199219 -58.16296875 148.41648437 -57.0234375 147.76171875 C-55.08031985 146.6294887 -53.16484036 145.44763937 -51.2890625 144.20703125 C-50.53367188 143.80871094 -49.77828125 143.41039062 -49 143 C-48.01 143.33 -47.02 143.66 -46 144 C-45.18359375 145.8203125 -45.18359375 145.8203125 -44.4375 148.125 C-41.97280497 154.13808866 -37.47259035 156.83396616 -32 160 C-31.06994141 160.58201172 -31.06994141 160.58201172 -30.12109375 161.17578125 C-27.06706968 162.36251989 -24.32639031 162.26393336 -21.0625 162.25 C-19.85722656 162.25515625 -18.65195313 162.2603125 -17.41015625 162.265625 C-13.23592094 161.94048411 -10.38673869 161.27091627 -7.26953125 158.4140625 C-6.54830078 157.52847656 -6.54830078 157.52847656 -5.8125 156.625 C-5.32394531 156.03976562 -4.83539063 155.45453125 -4.33203125 154.8515625 C-1.41152559 150.79197399 -0.74693357 147.89284688 -0.7215271 142.86236572 C-0.71036362 141.60315811 -0.69920013 140.3439505 -0.68769836 139.04658508 C-0.68533348 137.65377837 -0.68315782 136.26097133 -0.68115234 134.86816406 C-0.67185291 133.39960681 -0.66168421 131.93105485 -0.65071106 130.46250916 C-0.62339864 126.47734714 -0.60825799 122.4922205 -0.59528303 118.50698948 C-0.57965792 114.34159345 -0.55286573 110.17626972 -0.5272522 106.01092529 C-0.48045343 98.12394976 -0.44371464 90.23696065 -0.41057932 82.34991717 C-0.3723657 73.37050684 -0.32295355 64.39116909 -0.27259517 55.41181993 C-0.16925894 36.9412602 -0.0814824 18.47066997 0 0 Z " fill="#FDFBFB" transform="translate(257,157)"/>
</svg>
